<?xml version="1.0" encoding="UTF-8" standalone="no"?>
<!-- Created with Inkscape (http://www.inkscape.org/) -->

<svg
   width="15.625in"
   height="15.625in"
   viewBox="0 0 396.875 396.875"
   version="1.1"
   id="svg166"
   sodipodi:docname="Unnamed document 3.svg"
   inkscape:version="1.1 (ce6663b3b7, 2021-05-25)"
   xmlns:inkscape="http://www.inkscape.org/namespaces/inkscape"
   xmlns:sodipodi="http://sodipodi.sourceforge.net/DTD/sodipodi-0.dtd"
   xmlns="http://www.w3.org/2000/svg"
   xmlns:svg="http://www.w3.org/2000/svg">
  <sodipodi:namedview
     id="namedview168"
     pagecolor="#ffffff"
     bordercolor="#666666"
     borderopacity="1.0"
     inkscape:pageshadow="2"
     inkscape:pageopacity="0.0"
     inkscape:pagecheckerboard="0"
     inkscape:document-units="mm"
     showgrid="false"
     units="in"
     fit-margin-top="0"
     fit-margin-left="0"
     fit-margin-right="0"
     fit-margin-bottom="0"
     inkscape:zoom="0.2799099"
     inkscape:cx="973.52756"
     inkscape:cy="693.08017"
     inkscape:window-width="1299"
     inkscape:window-height="713"
     inkscape:window-x="67"
     inkscape:window-y="27"
     inkscape:window-maximized="1"
     inkscape:current-layer="layer1" />
  <defs
     id="defs163" />
  <g
     inkscape:label="Layer 1"
     inkscape:groupmode="layer"
     id="layer1"
     transform="translate(281.86075,125.36506)">
    <path
       style="fill:#fdfdfd;stroke-width:0.264583"
       d="m -281.86075,73.07244 v -198.4375 H -83.423252 115.01425 v 198.4375 198.4375 H -83.423252 -281.86075 Z m 212.592706,159.41508 c 23.341505,-2.26687 43.926858,-8.63618 63.8968754,-19.77033 C 21.382254,197.80099 43.092111,175.75215 57.584478,148.7786 66.762529,131.69616 72.949282,112.16117 75.443773,92.387023 76.548329,83.630966 76.888848,68.426703 76.160768,60.37244 74.334031,40.164068 69.611933,22.552438 61.226494,4.6733146 51.171771,-16.765026 35.532118,-36.68132 17.196626,-51.396463 -5.3146536,-69.462875 -31.801985,-81.019181 -60.404502,-85.253499 c -27.735493,-4.105963 -56.171018,-0.716034 -82.581998,9.844979 -17.58847,7.033136 -33.90212,17.278739 -48.38675,30.388737 -18.32641,16.58719 -32.86322,38.0816066 -41.75242,61.735973 -2.51311,6.687442 -5.81392,18.1995 -7.16907,25.003125 -6.39772,32.120398 -2.96064,64.615255 10.03292,94.853125 5.38969,12.54257 13.34299,25.75756 22.05429,36.64479 12.56219,15.70001 29.08712,29.74785 46.07074,39.16468 22.23343,12.32768 44.20099,18.77354 69.849996,20.49582 4.817973,0.32351 17.964362,0.10067 23.01875,-0.39021 z m 39.553497,-36.89561 c -1.246256,-0.3791 -2.33752,-1.06731 -2.853135,-1.79933 -1.0552,-1.4981 -1.003993,-1.72418 0.864434,-3.81656 11.139464,-12.47468 12.11276,-29.38246 2.807644,-48.77337 -0.977632,-2.03729 -3.270996,-6.26401 -5.096361,-9.39271 -1.825363,-3.1287 -4.550265,-7.83167 -6.055339,-10.45104 -5.446099,-9.4782 -8.124238,-12.12402 -13.693889,-13.52865 l -1.935647,-0.48816 -0.497594,0.65841 c -0.66445,0.87917 -7.790645,13.04768 -10.844501,18.51777 -3.890838,6.96931 -8.083621,14.97161 -9.711078,18.53444 -1.827798,4.00142 -2.095992,5.97879 -1.151745,8.49164 1.201846,3.19839 3.894569,6.62125 8.017238,10.19117 1.420937,1.23042 2.761514,2.5813 2.979062,3.00201 0.796666,1.54057 0.242171,3.73872 -1.202634,4.7675 -1.123394,0.79994 -5.772928,2.5908 -8.660305,3.33571 -2.213332,0.57103 -3.018496,0.65066 -5.748813,0.56856 -2.896976,-0.0871 -3.329758,-0.16787 -4.942314,-0.9227 -2.261817,-1.05873 -3.947536,-2.61263 -5.538943,-5.10583 -1.713336,-2.68419 -2.321955,-3.43958 -2.77132,-3.43958 -0.209021,0 -0.783826,0.62508 -1.277345,1.38906 -1.291296,1.99898 -2.68856,3.23805 -4.656378,4.1292 -5.17151,2.34201 -9.68086,1.57104 -13.48962,-2.30632 -2.44004,-2.48399 -3.21507,-4.17899 -3.38439,-7.40172 -0.0952,-1.81195 -0.23096,-2.50881 -0.50957,-2.61573 -0.20888,-0.0801 -1.53158,0.39495 -2.93933,1.05577 -3.22168,1.51233 -3.96019,1.74763 -6.11302,1.94773 -5.2794,0.49067 -10.80664,-3.27364 -15.90722,-10.83355 -2.06735,-3.06417 -2.13154,-4.36978 -0.31085,-6.32262 0.70487,-0.75602 1.16905,-0.88635 6.01322,-1.68849 6.79202,-1.12463 11.93481,-3.86 13.38453,-7.11896 1.29061,-2.90128 2.47832,-18.1388 3.30358,-42.382766 l 0.17281,-5.076518 -1.81588,-0.541594 c -5.57429,-1.66256 -41.96308,-11.927242 -42.28264,-11.927242 -0.57388,0 -0.63138,0.194217 -1.18617,4.006276 -1.06384,7.309911 -1.20986,9.886736 -1.19728,21.129144 0.0109,9.68928 0.082,11.55568 0.60489,15.875 1.51079,12.47886 4.04848,23.58096 7.4756,32.70493 0.56944,1.51601 1.03535,2.97685 1.03535,3.24631 0,0.76176 -1.04022,1.90124 -2.22816,2.44078 -4.88372,2.21805 -12.68838,-3.03202 -21.63628,-14.55441 -1.06284,-1.36864 -2.13459,-2.61429 -2.38168,-2.76809 -0.33018,-0.20553 -1.24176,-0.11614 -3.43958,0.33729 -5.88957,1.21506 -10.16976,0.98622 -13.86089,-0.74107 -2.63046,-1.23094 -5.44845,-4.16645 -5.82973,-6.07285 -0.13853,-0.69267 0.0866,-1.04503 2.05464,-3.2151 12.99461,-14.32893 22.71677,-32.509781 28.93411,-54.108002 1.79892,-6.24923 3.01384,-11.773979 3.7528,-17.065625 0.6602,-4.72762 0.65861,-15.838373 -0.003,-20.227398 -1.69718,-11.260564 -6.23664,-21.378423 -12.74613,-28.4094503 -1.7378,-1.8770335 -1.87886,-2.5843759 -0.93952,-4.7110147 1.84256,-4.1714711 7.45821,-6.3807155 12.71291,-5.0013658 3.49447,0.9172919 8.5544,4.1607184 13.73788,8.8060001 1.34937,1.2092622 2.36624,1.9182291 2.75133,1.9182291 0.33597,0 1.79373,-0.749292 3.23946,-1.6650917 6.61632,-4.1910899 13.52277,-7.6320094 19.7704,-9.8499612 1.11616,-0.396248 2.15088,-0.8668412 2.29938,-1.0457656 0.19079,-0.2298912 -0.18783,-1.6756116 -1.29076,-4.9286028 -2.94211,-8.6774841 -6.39899,-16.5783151 -8.60809,-19.6740911 -2.88901,-4.04858 -7.24477,-6.755789 -12.13751,-7.543742 -2.82799,-0.455435 -3.18538,-1.398013 -1.49172,-3.934291 1.19745,-1.793192 2.18329,-2.712683 3.78399,-3.529298 1.65947,-0.846598 2.4524,-1.024903 5.52682,-1.242801 2.49173,-0.176599 2.9275,-0.280842 3.53002,-0.844433 0.92651,-0.86663 1.10753,-1.248043 1.7096,-3.602152 0.88056,-3.442938 2.16062,-5.081383 4.98375,-6.379067 2.7387,-1.258874 6.46871,-0.765519 8.70876,1.151882 1.20942,1.035222 2.34371,3.126679 2.64137,4.870276 0.10871,0.636817 0.33248,1.20279 0.49727,1.25772 0.16479,0.05493 0.95459,-0.828683 1.75511,-1.963584 4.6773,-6.631061 9.99066,-8.749366 16.73588,-6.672185 2.46666,0.759602 3.29456,1.215593 3.29456,1.814568 0,0.300458 -0.83437,1.195461 -2.0936,2.245751 -6.80859,5.678858 -10.57851,13.497666 -12.50314,25.931485 -0.62156,4.01548 -1.03658,18.4884004 -0.54428,18.9806947 0.18708,0.1870869 1.256,0.099859 3.40733,-0.2780532 4.61842,-0.8112894 9.10968,-1.3037344 14.901388,-1.6338684 l 5.152076,-0.293674 2.922188,-2.8308411 c 5.792319,-5.611249 12.513117,-9.099724 20.316592,-10.545458 3.632068,-0.672907 10.327341,-0.601379 13.856579,0.148034 12.098305,2.569001 21.607377,9.792304 26.955734,20.4761761 0.788085,1.5742815 1.801024,4.079748 2.250974,5.5677065 0.449951,1.4879558 0.95934,2.9936175 1.131978,3.3459155 0.183419,0.3743034 1.358632,1.2407212 2.827427,2.0845066 5.080196,2.9184383 11.016139,7.0837393 15.8750001,11.1396353 1.2369271,1.032513 2.3409275,1.87746 2.4533225,1.877661 0.3219186,5.29e-4 2.9335413,-4.133236 4.9577625,-7.847415 3.3692307,-6.1820184 5.7386009,-12.2947877 6.905969,-17.8168032 0.4574117,-2.1636885 0.5922433,-3.7144087 0.6096,-7.0114588 0.023548,-4.456763 -0.2071687,-5.97889 -1.5416742,-10.173869 -0.3449902,-1.084485 -0.567981,-2.126282 -0.4955116,-2.315104 0.3182673,-0.829437 4.5468381,0.11626 7.5305967,1.684176 4.190815,2.202212 6.811963,6.972504 6.827415,12.4253701 0.0058,2.0490712 0.247332,3.274219 0.645451,3.274219 0.17055,0 0.780732,-0.486537 1.355989,-1.0811933 2.431045,-2.5131317 5.818611,-3.1992807 8.85108,-1.7927907 4.267835,1.9794648 6.003687,6.3589169 4.382294,11.0562633 -1.219306,3.5324362 -0.803275,4.8209385 2.172546,6.7283806 3.609684,2.313757 5.132891,4.914532 5.188189,8.858512 0.02857,2.038183 -0.01826,2.245405 -0.615342,2.729513 -0.355468,0.288134 -0.831718,0.464225 -1.058333,0.391313 -0.226642,-0.07291 -1.483625,-0.517382 -2.793312,-0.987713 -1.997578,-0.717367 -2.862263,-0.874773 -5.366623,-0.976932 -4.759325,-0.194146 -7.467865,0.652349 -12.757336,3.987036 -5.263038,3.31802 -13.4937495,9.529519 -13.4937495,10.183376 0,0.195765 0.7374202,1.212662 1.6386969,2.259772 7.9431616,9.228338 16.1641896,23.151967 21.2209586,35.941063 2.262744,5.722763 2.636256,7.32686 2.455307,10.545067 -0.275748,4.904041 -2.575031,9.284287 -6.346851,12.091 -2.717827,2.022396 -11.160734,5.833033 -18.0128599,8.129943 -10.9190895,3.6602 -21.5855281,5.62292 -33.3550071,6.13761 -3.920993,0.17147 -4.264859,0.22784 -4.828646,0.79163 -1.058984,1.05898 -0.817618,1.92577 1.18201,4.24481 2.793185,3.23936 2.919979,3.44522 7.46424,12.11866 2.360549,4.50548 4.618958,8.67267 5.018688,9.26042 2.624629,3.85916 6.165178,10.52246 8.7508981,16.46916 3.4055312,7.83217 8.0385177,12.70854 15.4097829,16.21935 1.4905566,0.70991 3.9602304,1.65029 5.488199,2.08976 2.039276,0.58653 2.936452,0.98145 3.373438,1.48498 0.74549,0.85899 0.742235,1.02907 -0.07845,4.09244 -0.955305,3.56581 -2.233348,6.06782 -4.035769,7.90064 -3.5778284,3.63818 -8.4808751,4.3507 -14.8619371,2.15974 -1.275715,-0.43802 -2.6625286,-0.79549 -3.0818138,-0.79441 -0.5582179,0.003 -1.465077,0.57288 -3.3870111,2.13416 -7.996264,6.49573 -15.267006,9.8466 -18.940586,8.72916 z M -99.420452,149.6468 c 1.111474,-0.52745 1.360207,-0.89263 4.489992,-6.59207 4.939342,-8.99472 11.817982,-20.11406 19.284228,-31.17302 5.916062,-8.76283 5.636024,-8.30984 5.315979,-8.59915 -0.143388,-0.12962 -4.130239,-1.31931 -8.859666,-2.64376 -4.729427,-1.324453 -12.170833,-3.427295 -16.536458,-4.672991 -9.069763,-2.587982 -11.443403,-3.203784 -11.629973,-3.01721 -0.0726,0.07259 -0.003,3.51804 0.15527,7.656561 0.33956,8.89471 0.15209,33.55187 -0.3045,40.04948 -0.35612,5.06799 -0.22943,5.9141 1.11479,7.44509 1.80662,2.05761 4.59176,2.67578 6.970338,1.54707 z m 73.377827,-51.056356 c 10.660919,-1.558763 19.9369202,-5.683906 26.2146096,-11.657941 3.929036,-3.738991 6.4476577,-7.702632 7.7503866,-12.197035 0.5126567,-1.768591 0.5969265,-2.677292 0.5960269,-6.425528 0,-3.922501 -0.072813,-4.62248 -0.7082367,-6.896134 -0.920062,-3.292237 -2.4464168,-6.803232 -4.3292448,-9.958364 -1.596046,-2.674562 -5.6799956,-8.2428 -6.8268585,-9.308076 l -0.6785769,-0.630283 -2.3269575,2.162234 c -4.7720777,4.434213 -15.7246767,16.235598 -21.5638667,23.234954 -2.862893,3.431709 -7.658071,9.746043 -11.106272,14.624836 -3.530015,4.994552 -9.74122,14.40044 -9.74122,14.751536 0,0.44208 4.666842,1.717191 8.432138,2.3039 3.227864,0.502965 10.835021,0.500782 14.288072,-0.0041 z m -30.307458,-13.96316 c 9.6583,-12.831744 19.310372,-24.696092 29.941505,-36.804169 7.276838,-8.287779 12.560662,-14.458548 12.864615,-15.024045 0.199417,-0.371014 -0.202485,-0.825388 -2.207842,-2.496116 -3.739607,-3.115561 -9.411017,-7.29743 -13.96103,-10.294302 C -46.552427,8.9172365 -63.198999,2.6611557 -80.057681,1.0881575 -85.00949,0.6261288 -95.495687,0.9030047 -100.22429,1.6206367 c -4.1183,0.6250067 -10.97501,2.2431296 -14.41979,3.4029386 -1.965,0.6615853 -2.25907,0.8414808 -2.32905,1.4247521 -0.044,0.367157 0.22854,2.6192692 0.60574,5.0046916 4.12006,26.055074 5.67727,38.126458 7.1468,55.401713 0.37137,4.365625 0.76152,8.949531 0.867,10.186458 l 0.1918,2.248958 1.05833,0.307888 c 0.58209,0.169339 6.53521,1.867815 13.229166,3.774395 6.693959,1.906577 16.338021,4.703104 21.43125,6.214504 5.09323,1.511401 9.505995,2.729955 9.806144,2.7079 0.38604,-0.02837 2.225648,-2.271999 6.286817,-7.667551 z M -121.52667,72.344836 c -0.009,-7.857286 -0.7535,-21.332304 -1.60337,-29.038021 -1.02821,-9.322821 -4.86949,-31.0378 -5.62778,-31.814235 -0.25474,-0.260835 -0.88489,-0.0031 -3.04776,1.24647 -4.07592,2.354831 -6.69681,4.322548 -10.00846,7.514169 -5.33131,5.138074 -7.6766,8.447146 -11.46354,16.174429 -3.77516,7.703265 -6.38796,14.391061 -8.88198,22.734625 -0.8345,2.791751 -1.09795,4.031737 -0.8989,4.230791 0.32347,0.323471 40.03781,11.74778 40.9399,11.776855 0.58183,0.01876 0.59523,-0.0452 0.59189,-2.825083 z m 79.19494,-72.6233044 c -0.810366,-1.4496944 -5.400069,-5.8956575 -7.442803,-7.2097105 -8.001193,-5.1470161 -17.846053,-5.9266961 -26.261629,-2.079834 -1.152483,0.526814 -2.095423,1.105998 -2.095423,1.287073 0,0.211871 0.636643,0.394928 1.785937,0.513525 7.23836,0.7469293 20.096811,3.6935621 28.286766,6.4821752 2.887043,0.9830144 5.464262,1.8040721 5.727152,1.8245746 0.460915,0.035941 0.460915,0.00675 0,-0.8178033 z M -53.721344,-25.262395 c -2.691048,-0.95268 -4.506275,-3.938556 -4.232164,-6.961513 0.1914,-2.110761 0.691079,-2.933978 4.426358,-7.292359 2.688381,-3.136844 3.477273,-3.896738 4.301955,-4.143819 0.83325,-0.249648 1.167969,-0.227177 1.913792,0.128481 0.497155,0.237078 1.076836,0.703644 1.288183,1.036818 0.450664,0.710438 1.4972,8.299468 1.488262,10.792227 -0.0072,2.019808 -0.567467,3.442634 -1.867307,4.742476 -1.937303,1.937301 -4.779814,2.596634 -7.319079,1.697689 z"
       id="path3291" />
    <path
       style="fill:#8c8c8c;stroke-width:0.264583"
       d="m -92.286794,232.87773 c -5.175451,-0.34753 -9.039516,-0.7503 -14.066366,-1.46627 -27.89547,-3.97311 -54.81541,-15.63129 -76.94188,-33.32115 -22.50417,-17.99182 -39.7781,-41.84631 -50.00784,-69.05849 -7.39384,-19.6684 -10.96991,-42.011208 -9.97971,-62.351883 0.75677,-15.54557 2.76824,-26.75976 7.63306,-42.555414 7.90005,-25.6507849 23.99838,-50.790829 44.27628,-69.144306 14.48463,-13.109998 30.79828,-23.355601 48.38675,-30.388737 37.23717,-14.890102 78.043312,-15.366029 115.654915,-1.348896 24.9371641,9.293614 46.911418,24.50824 64.571059,44.70799 9.501056,10.867668 17.869668,23.6795041 23.98702,36.7227406 8.385439,17.8791234 13.107537,35.4907534 14.934274,55.6991254 0.445082,4.923536 0.447516,19.785319 0.004,25.003125 -1.130776,13.306306 -3.55293,25.164435 -7.867967,38.519285 -2.455439,7.59942 -6.60609,17.24094 -10.712424,24.88375 -14.492367,26.97355 -36.202223,49.02239 -62.9556459,63.93859 -19.9700171,11.13415 -40.5553701,17.50346 -63.8968751,19.77033 -5.054388,0.49088 -18.200777,0.71372 -23.01875,0.39021 z m 66.782178,-37.44592 c 3.636968,-0.85728 9.274312,-4.13663 14.730656,-8.56906 1.9219331,-1.56128 2.8287925,-2.1327 3.3870104,-2.13416 0.4192852,0 1.8060987,0.35639 3.0818137,0.79441 9.7494461,3.34751 16.2299649,-0.10247 18.8977059,-10.06038 0.820684,-3.06337 0.823939,-3.23345 0.07845,-4.09244 -0.436986,-0.50353 -1.334162,-0.89845 -3.373438,-1.48498 -1.5279683,-0.43947 -3.9976421,-1.37985 -5.4881987,-2.08976 -7.3712652,-3.51081 -12.0042517,-8.38718 -15.4097832,-16.21935 -2.5857201,-5.9467 -6.1262681,-12.61 -8.7508981,-16.46916 -0.39973,-0.58775 -2.658139,-4.75494 -5.018688,-9.26042 -4.544261,-8.67344 -4.671055,-8.8793 -7.46424,-12.11866 -1.999628,-2.31904 -2.240994,-3.18583 -1.18201,-4.24481 0.563787,-0.56379 0.907653,-0.62016 4.828646,-0.79163 11.769479,-0.51469 22.4359179,-2.47741 33.3550074,-6.13761 6.8521266,-2.29691 15.2950336,-6.107547 18.0128596,-8.129943 3.771821,-2.806713 6.071103,-7.186959 6.346852,-12.091 C 30.708076,79.11465 30.334564,77.510553 28.071821,71.78779 23.015051,58.998694 14.794024,45.075065 6.8508616,35.846727 5.949585,34.799617 5.2121648,33.78272 5.2121648,33.586955 c 0,-0.653857 8.2307112,-6.865356 13.4937502,-10.183376 5.28947,-3.334687 7.99801,-4.181182 12.757335,-3.987036 2.50436,0.102159 3.369045,0.259565 5.366623,0.976932 1.309687,0.470331 2.56667,0.914805 2.793312,0.987713 0.226616,0.07291 0.702866,-0.103179 1.058333,-0.391313 0.597218,-0.484108 0.643917,-0.69133 0.615342,-2.729513 C 41.24156,14.316382 39.718356,11.715607 36.108672,9.40185 33.13285,7.4944079 32.716819,6.2059056 33.936125,2.6734694 35.557518,-2.023877 33.821666,-6.4033291 29.553831,-8.3827939 c -3.032469,-1.40649 -6.420035,-0.720341 -8.851079,1.7927907 -0.575258,0.5946563 -1.18544,1.0811933 -1.35599,1.0811933 -0.398119,0 -0.63963,-1.2251478 -0.645451,-3.274219 -0.01535,-5.4528661 -2.636599,-10.2231581 -6.827414,-12.4253701 -2.9837593,-1.567916 -7.2123302,-2.513613 -7.5305974,-1.684176 -0.072469,0.188822 0.1505214,1.230619 0.4955116,2.315104 1.3345054,4.194979 1.5651427,5.717106 1.5416742,10.173869 -0.017462,3.2970501 -0.1521883,4.8477703 -0.6096,7.0114588 -1.1673681,5.5220155 -3.5367383,11.6347848 -6.905969,17.8168032 -2.0242212,3.714179 -4.6358439,7.847989 -4.9577625,7.847415 -0.112395,-2.01e-4 -1.2163954,-0.845148 -2.4533225,-1.877661 C -13.40503,16.338518 -19.340973,12.173218 -24.421169,9.2547787 c -1.468794,-0.8437854 -2.644007,-1.7102032 -2.827427,-2.0845066 -0.172638,-0.352298 -0.682027,-1.8579597 -1.131978,-3.3459155 -0.44995,-1.4879585 -1.462889,-3.993425 -2.250974,-5.5677065 -5.348356,-10.6838721 -14.857428,-17.9071751 -26.955734,-20.4761761 -3.529238,-0.749413 -10.224511,-0.820941 -13.856579,-0.148034 -7.803475,1.445734 -14.524273,4.934209 -20.316592,10.545458 l -2.922188,2.8308411 -5.152081,0.293674 c -5.791698,0.330134 -10.282968,0.822579 -14.901378,1.6338684 -2.15134,0.3779123 -3.22025,0.4651401 -3.40734,0.2780532 -0.49229,-0.4922943 -0.0773,-14.9652147 0.54428,-18.9806947 1.92463,-12.433819 5.69455,-20.252627 12.50315,-25.931485 1.25923,-1.05029 2.09359,-1.945293 2.09359,-2.245751 0,-0.598975 -0.8279,-1.054966 -3.29456,-1.814568 -6.74522,-2.077181 -12.05857,0.04112 -16.73588,6.672185 -0.80052,1.134901 -1.59031,2.018514 -1.7551,1.963584 -0.16479,-0.05493 -0.38856,-0.620903 -0.49728,-1.25772 -0.29765,-1.743597 -1.43194,-3.835054 -2.64137,-4.870276 -2.24005,-1.917401 -5.97006,-2.410756 -8.70876,-1.151882 -2.82312,1.297684 -4.10318,2.936129 -4.98374,6.379067 -0.60208,2.354109 -0.7831,2.735522 -1.7096,3.602152 -0.60253,0.563591 -1.0383,0.667834 -3.53002,0.844433 -3.07442,0.217898 -3.86736,0.396203 -5.52683,1.242801 -1.60069,0.816615 -2.58654,1.736106 -3.78399,3.529298 -1.69366,2.536278 -1.33627,3.478856 1.49172,3.934291 4.89274,0.787953 9.24851,3.495162 12.13751,7.543742 2.20911,3.095776 5.66599,10.996607 8.6081,19.6740911 1.10292,3.2529912 1.48154,4.6987116 1.29075,4.9286028 -0.14849,0.1789244 -1.18321,0.6495176 -2.29938,1.0457656 -6.24762,2.2179518 -13.15408,5.6588713 -19.77039,9.8499612 -1.44574,0.9157997 -2.9035,1.6650917 -3.23947,1.6650917 -0.38508,0 -1.40196,-0.7089669 -2.75132,-1.9182291 -5.18348,-4.6452817 -10.24342,-7.8887082 -13.73789,-8.8060001 -5.25469,-1.3793497 -10.87034,0.8298947 -12.7129,5.0013658 -0.93935,2.1266388 -0.79828,2.8339812 0.93952,4.7110147 6.50949,7.0310273 11.04895,17.1488863 12.74613,28.4094503 0.66151,4.389025 0.6631,15.499778 0.003,20.227398 -2.22212,15.912338 -9.14325,35.657724 -17.75999,50.667707 -3.88274,6.76356 -9.65289,14.69033 -14.92693,20.50592 -1.96798,2.17007 -2.19316,2.52243 -2.05463,3.2151 0.38128,1.9064 3.19926,4.84191 5.82972,6.07285 3.69114,1.72729 7.97133,1.95613 13.8609,0.74107 2.19782,-0.45343 3.1094,-0.54282 3.43958,-0.33729 0.24708,0.1538 1.31884,1.39945 2.38167,2.76809 8.9479,11.52239 16.75256,16.77246 21.63628,14.55441 1.18795,-0.53954 2.22817,-1.67902 2.22817,-2.44078 0,-0.26946 -0.46591,-1.7303 -1.03535,-3.24631 -3.42712,-9.12397 -5.96481,-20.22607 -7.47561,-32.70493 -0.52293,-4.31932 -0.59405,-6.18572 -0.60489,-15.875 -0.0126,-11.242408 0.13344,-13.819233 1.19729,-21.129144 0.55478,-3.812059 0.61228,-4.006276 1.18616,-4.006276 0.31956,0 36.70835,10.264682 42.28264,11.927242 l 1.81588,0.541594 -0.17281,5.076518 c -0.82526,24.243966 -2.01297,39.481486 -3.30358,42.382766 -1.44972,3.25896 -6.59251,5.99433 -13.38453,7.11896 -4.84417,0.80214 -5.30835,0.93247 -6.01322,1.68849 -1.82069,1.95284 -1.7565,3.25845 0.31085,6.32262 5.10058,7.55991 10.62782,11.32422 15.90722,10.83355 2.15283,-0.2001 2.89134,-0.4354 6.11302,-1.94773 1.40775,-0.66082 2.73045,-1.13591 2.93933,-1.05577 0.27861,0.10692 0.41437,0.80378 0.50957,2.61573 0.16932,3.22273 0.94435,4.91773 3.38439,7.40172 3.80876,3.87736 8.31811,4.64833 13.48962,2.30632 1.967818,-0.89115 3.365082,-2.13022 4.656378,-4.1292 0.493519,-0.76398 1.068324,-1.38906 1.277345,-1.38906 0.449365,0 1.057984,0.75539 2.77132,3.43958 1.591407,2.4932 3.277126,4.0471 5.538943,5.10583 1.612556,0.75483 2.045338,0.83563 4.942314,0.9227 2.730317,0.0821 3.535481,0.003 5.748813,-0.56856 2.887377,-0.74491 7.536911,-2.53577 8.660305,-3.33571 1.444805,-1.02878 1.9993,-3.22693 1.202634,-4.7675 -0.217548,-0.42071 -1.558125,-1.77159 -2.979062,-3.00201 -4.122669,-3.56992 -6.815392,-6.99278 -8.017238,-10.19117 -0.944247,-2.51285 -0.676053,-4.49022 1.151745,-8.49164 1.627457,-3.56283 5.82024,-11.56513 9.711078,-18.53444 3.053856,-5.47009 10.180051,-17.6386 10.844501,-18.51777 l 0.497594,-0.65841 1.935647,0.48816 c 5.569651,1.40463 8.24779,4.05045 13.693889,13.52865 1.505074,2.61937 4.229976,7.32234 6.055339,10.45104 1.825365,3.1287 4.118729,7.35542 5.096361,9.39271 9.305116,19.39091 8.33182,36.29869 -2.807644,48.77337 -1.868427,2.09238 -1.919634,2.31846 -0.864434,3.81656 0.515615,0.73202 1.606879,1.42023 2.853135,1.79933 1.054179,0.32065 2.385137,0.27006 4.209931,-0.1601 z m -77.572544,-45.37816 c -1.47583,-0.36476 -2.39333,-0.90578 -3.31363,-1.95392 -1.34422,-1.53099 -1.47091,-2.3771 -1.11479,-7.44509 0.45659,-6.49761 0.64406,-31.15477 0.3045,-40.04948 -0.15799,-4.138521 -0.22786,-7.583973 -0.15527,-7.656561 0.18657,-0.186574 2.56021,0.429228 11.629973,3.01721 4.365625,1.245696 11.807031,3.348538 16.536458,4.672991 4.729427,1.32445 8.716278,2.51414 8.859666,2.64376 0.320045,0.28931 0.600083,-0.16368 -5.315979,8.59915 -7.466246,11.05896 -14.344886,22.1783 -19.284228,31.17302 -1.278575,2.32834 -2.595166,4.66122 -2.925752,5.18417 -0.98527,1.55863 -3.176108,2.32013 -5.220948,1.81475 z m 62.746463,-51.459107 c -3.765296,-0.586709 -8.432138,-1.86182 -8.432138,-2.3039 0,-0.351096 6.211205,-9.756984 9.74122,-14.751536 3.448201,-4.878793 8.243379,-11.193127 11.106272,-14.624836 5.83919,-6.999356 16.791789,-18.800741 21.5638667,-23.234954 l 2.3269575,-2.162234 0.6785769,0.630283 c 1.1468629,1.065276 5.2308125,6.633514 6.8268585,9.308076 1.882828,3.155132 3.4091828,6.666127 4.3292448,9.958364 0.6354234,2.273654 0.7073107,2.973633 0.7082367,6.896134 0,3.748236 -0.08337,4.656937 -0.5960269,6.425528 -3.5031627,12.085844 -16.6570291,21.324327 -33.9649962,23.854976 -3.453051,0.504881 -11.060208,0.507064 -14.288072,0.0041 z m -32.112347,-9.007608 c -5.093229,-1.5114 -14.737291,-4.307927 -21.43125,-6.214504 -6.693956,-1.90658 -12.647076,-3.605056 -13.229166,-3.774395 l -1.05833,-0.307888 -0.1918,-2.248958 c -0.10548,-1.236927 -0.49563,-5.820833 -0.867,-10.186458 -1.46953,-17.275255 -3.02674,-29.346639 -7.1468,-55.401713 -0.3772,-2.3854224 -0.64979,-4.6375346 -0.60574,-5.0046916 0.07,-0.5832713 0.36405,-0.7631668 2.32905,-1.4247521 3.44478,-1.159809 10.30149,-2.7779319 14.41979,-3.4029386 4.728603,-0.717632 15.2148,-0.9945079 20.166609,-0.5324792 16.858682,1.5729982 33.505254,7.829079 50.344846,18.9204945 4.550013,2.996872 10.221423,7.178741 13.96103,10.294302 2.005357,1.670728 2.407259,2.125102 2.207842,2.496116 -0.303953,0.565497 -5.587777,6.736266 -12.864615,15.024045 -10.631133,12.108077 -20.283205,23.972425 -29.941505,36.804169 -4.061169,5.395552 -5.900777,7.639182 -6.286817,7.667551 -0.300149,0.02207 -4.712914,-1.196499 -9.806144,-2.7079 z M -142.74538,69.412689 c -11.01732,-3.155924 -20.15821,-5.864754 -20.31308,-6.019625 -0.19905,-0.199054 0.0644,-1.43904 0.8989,-4.230791 2.49402,-8.343564 5.10682,-15.03136 8.88198,-22.734625 3.78694,-7.727283 6.13223,-11.036355 11.46354,-16.174429 3.31165,-3.191621 5.93254,-5.159338 10.00846,-7.514169 2.16287,-1.249582 2.79302,-1.507305 3.04776,-1.24647 0.75829,0.776435 4.59957,22.491414 5.62778,31.814235 0.84987,7.705717 1.59391,21.180735 1.60337,29.038021 0.003,2.779884 -0.0101,2.843837 -0.59189,2.825083 -0.32742,-0.01056 -9.60949,-2.601307 -20.62682,-5.75723 z m 94.686498,-70.6979287 c -8.189955,-2.7886131 -21.048406,-5.7352459 -28.286766,-6.4821752 -1.149294,-0.118597 -1.785937,-0.301654 -1.785937,-0.513525 0,-0.181075 0.94294,-0.760259 2.095423,-1.287073 8.415576,-3.8468621 18.260436,-3.0671821 26.261629,2.079834 2.042734,1.314053 6.632437,5.7600161 7.442803,7.2097105 0.460915,0.8245502 0.460915,0.8537443 0,0.8178033 -0.26289,-0.020505 -2.840109,-0.8415602 -5.727152,-1.8245746 z m -0.566119,-24.1619483 c 2.704682,-1.259488 4.079672,-3.362415 4.090043,-6.255372 0.0089,-2.492759 -1.037598,-10.081789 -1.488262,-10.792227 -0.211347,-0.333174 -0.791028,-0.79974 -1.288183,-1.036818 -0.745823,-0.355658 -1.080542,-0.378129 -1.913792,-0.128481 -0.824682,0.247081 -1.613574,1.006975 -4.301955,4.143819 -3.735279,4.358381 -4.234958,5.181598 -4.426358,7.292359 -0.468537,5.167135 4.708594,8.928076 9.328507,6.77672 z"
       id="path3289" />
  </g>
</svg>
